<?xml version="1.0" encoding="UTF-8" standalone="no"?>
<!DOCTYPE svg PUBLIC "-//W3C//DTD SVG 1.1//EN" "http://www.w3.org/Graphics/SVG/1.1/DTD/svg11.dtd">
<svg width="100%" height="100%" viewBox="0 0 956 271" version="1.1" xmlns="http://www.w3.org/2000/svg" xmlns:xlink="http://www.w3.org/1999/xlink" xml:space="preserve" xmlns:serif="http://www.serif.com/" style="fill-rule:evenodd;clip-rule:evenodd;stroke-linejoin:round;stroke-miterlimit:2;">
    <g transform="matrix(1,0,0,1,-79.242,-136.991)">
        <g transform="matrix(1,0,0,1,252.593,186.878)">
            <g transform="matrix(0.990583,0,0,0.87686,-237.867,-163.651)">
                <path d="M1029.31,284.254C1029.31,198.975 968.024,129.74 892.536,129.74L201.904,129.74C126.416,129.74 65.129,198.975 65.129,284.254C65.129,369.532 126.416,438.767 201.904,438.767L892.536,438.767C968.024,438.767 1029.31,369.532 1029.31,284.254Z" style="fill:white;"/>
            </g>
        </g>
        <g transform="matrix(1,0,0,1,277.728,183.967)">
            <path d="M246.42,87.22C247.163,86.491 248.039,85.91 249,85.51C251.987,84.261 255.449,84.942 257.74,87.23L258.45,87.94L262.45,83.81L261.75,83.11C260.486,81.847 258.984,80.847 257.33,80.17C253.929,78.776 250.111,78.776 246.71,80.17C243.41,81.547 240.78,84.166 239.39,87.46C238.673,89.149 238.309,90.966 238.32,92.8C238.32,92.833 238.32,92.867 238.32,92.9C238.32,100.416 244.504,106.6 252.02,106.6C252.046,106.6 252.073,106.6 252.1,106.6L259.92,106.6L259.92,100.86L252.1,100.86C251.028,100.868 249.965,100.653 248.98,100.23C247.062,99.429 245.529,97.911 244.71,96C244.288,95.014 244.074,93.952 244.08,92.88C244.072,91.817 244.286,90.765 244.71,89.79C245.113,88.833 245.693,87.961 246.42,87.22Z" style="fill:rgb(29,29,27);fill-rule:nonzero;"/>
        </g>
        <g transform="matrix(1,0,0,1,277.728,183.967)">
            <path d="M282.45,80.45C281.566,80.878 280.739,81.415 279.99,82.05L279.99,79.79L267.65,79.79L267.65,85.53L274.25,85.53L274.25,106.6L280,106.6L280,92.84C279.992,91.777 280.206,90.725 280.63,89.75C281.041,88.807 281.624,87.949 282.35,87.22C283.084,86.494 283.95,85.914 284.9,85.51C287.041,84.612 289.47,84.688 291.55,85.72L292.44,86.14L295,81L294.11,80.56C290.461,78.686 286.133,78.645 282.45,80.45Z" style="fill:rgb(29,29,27);fill-rule:nonzero;"/>
        </g>
        <g transform="matrix(1,0,0,1,277.728,183.967)">
            <path d="M322.32,91.9C322.328,90.183 321.988,88.482 321.32,86.9C318.578,80.46 311.101,77.332 304.59,79.9L303.59,80.27L305.78,85.66L306.71,85.28C308.305,84.624 310.09,84.588 311.71,85.18C312.475,85.463 313.19,85.865 313.83,86.37C314.458,86.873 314.993,87.482 315.41,88.17L315.63,88.55L314.73,88.3C313.441,87.985 312.117,87.834 310.79,87.85C309.424,87.844 308.068,88.089 306.79,88.57C305.573,89.028 304.451,89.706 303.48,90.57C302.542,91.412 301.78,92.431 301.24,93.57C300.681,94.734 300.394,96.009 300.4,97.3C300.388,98.644 300.7,99.972 301.31,101.17C301.895,102.302 302.701,103.305 303.68,104.12C304.67,104.939 305.798,105.575 307.01,106C308.23,106.435 309.515,106.658 310.81,106.66L328.53,106.66L328.53,100.92L322.26,100.92L322.32,91.9ZM310.87,93.56C312.061,93.525 313.249,93.715 314.37,94.12C315.123,94.416 315.861,94.75 316.58,95.12L316.58,100.84L310.87,100.84C310.305,100.837 309.745,100.742 309.21,100.56C308.667,100.383 308.154,100.123 307.69,99.79C307.268,99.483 306.911,99.096 306.64,98.65C306.142,97.763 306.142,96.677 306.64,95.79C306.918,95.332 307.281,94.931 307.71,94.61C308.164,94.269 308.67,94.006 309.21,93.83C309.745,93.652 310.306,93.561 310.87,93.56Z" style="fill:rgb(29,29,27);fill-rule:nonzero;"/>
        </g>
        <g transform="matrix(1,0,0,1,277.728,183.967)">
            <path d="M336.23,79.79L336.23,85.53L347.36,85.53L332.62,106.6L355.83,106.6L355.83,100.86L343.67,100.86L358.46,79.79L336.23,79.79Z" style="fill:rgb(29,29,27);fill-rule:nonzero;"/>
        </g>
        <g transform="matrix(1,0,0,1,277.728,183.967)">
            <path d="M374.58,96.58L366.75,79.79L360.42,79.79L371.39,103.4L364.16,119.03L370.49,119.03L388.75,79.79L382.42,79.79L374.58,96.58Z" style="fill:rgb(29,29,27);fill-rule:nonzero;"/>
        </g>
        <g transform="matrix(1,0,0,1,277.728,183.967)">
            <path d="M431.58,68.85L425.84,68.85L425.84,79.79L418.47,79.79L418.47,85.53L425.84,85.53L425.84,106.6L438.18,106.6L438.18,100.86L431.58,100.86L431.58,85.53L441.32,85.53L441.32,79.79L431.58,79.79L431.58,68.85Z" style="fill:rgb(29,29,27);fill-rule:nonzero;"/>
        </g>
        <g transform="matrix(1,0,0,1,277.728,183.967)">
            <path d="M469.56,83.22C468.27,81.959 466.762,80.943 465.11,80.22C461.623,78.721 457.667,78.721 454.18,80.22C452.527,80.943 451.02,81.959 449.73,83.22C445.702,87.262 444.512,93.372 446.73,98.63C448.166,101.993 450.847,104.674 454.21,106.11C457.698,107.574 461.632,107.574 465.12,106.11C468.484,104.675 471.165,101.994 472.6,98.63C473.336,96.904 473.71,95.046 473.7,93.17C473.73,89.419 472.243,85.811 469.58,83.17L469.56,83.22ZM467.94,93.22C467.947,94.321 467.723,95.412 467.28,96.42C466.414,98.407 464.827,99.994 462.84,100.86C460.8,101.729 458.49,101.729 456.45,100.86C454.449,99.98 452.857,98.37 452,96.36C451.557,95.352 451.332,94.261 451.34,93.16C451.333,92.049 451.558,90.949 452,89.93C452.427,88.938 453.038,88.035 453.8,87.27C454.555,86.516 455.448,85.915 456.43,85.5C457.446,85.075 458.538,84.86 459.64,84.87C460.752,84.865 461.853,85.083 462.88,85.51C464.881,86.334 466.471,87.927 467.29,89.93C467.721,90.956 467.942,92.057 467.94,93.17L467.94,93.22Z" style="fill:rgb(29,29,27);fill-rule:nonzero;"/>
        </g>
        <g transform="matrix(1,0,0,1,277.728,183.967)">
            <path d="M507.04,95.66L498.77,77.51L490.44,95.66L482.84,79.79L476.44,79.79L490.48,109.06L498.76,90.96L506.99,109.06L521.09,79.79L514.7,79.79L507.04,95.66Z" style="fill:rgb(29,29,27);fill-rule:nonzero;"/>
        </g>
        <g transform="matrix(1,0,0,1,277.728,183.967)">
            <path d="M557.11,87.41C555.707,84.152 553.108,81.553 549.85,80.15C546.698,78.781 543.129,78.717 539.93,79.97C539.136,80.281 538.379,80.677 537.67,81.15L537.67,79.79L525.33,79.79L525.33,85.53L531.93,85.53L531.93,106.6L537.67,106.6L537.67,88.86C538.328,87.695 539.267,86.712 540.4,86C541.628,85.203 543.066,84.789 544.53,84.81C545.56,84.813 546.58,85.02 547.53,85.42C548.471,85.815 549.327,86.389 550.05,87.11C550.776,87.838 551.36,88.697 551.77,89.64C552.194,90.615 552.408,91.667 552.4,92.73L552.4,106.6L558.14,106.6L558.14,92.73C558.166,90.905 557.816,89.094 557.11,87.41Z" style="fill:rgb(29,29,27);fill-rule:nonzero;"/>
        </g>
        <g transform="matrix(1,0,0,1,277.728,183.967)">
            <path d="M203.43,136.95L186.25,122.84C187.361,118.318 187.467,113.607 186.56,109.04C184.627,112.059 182.235,114.758 179.47,117.04L160.47,101.04C158.57,99.227 158.16,97.797 159.24,96.75L180.71,77.75C185.05,73.19 170.89,59.35 170.89,59.35C170.89,59.35 194.64,74.91 197.89,89.1C198.26,89.53 221.51,108.1 221.51,108.1C222.82,109.27 224.07,110.64 223.35,112.1C223.2,112.6 208.01,137.56 208.01,137.56C207.017,138.787 205.483,138.583 203.41,136.95L203.43,136.95Z" style="fill:rgb(221,12,21);fill-rule:nonzero;"/>
        </g>
        <g transform="matrix(1,0,0,1,277.728,183.967)">
            <path d="M190.24,62.12L179.35,64.21C174.988,60.794 170.43,57.635 165.7,54.75C170.5,59.87 173.52,63.257 174.76,64.91L162.32,67.33C160.76,67.517 159.327,66.8 158.02,65.18L132.26,34.52C127,27 107.71,25 107.71,25C107.71,25 129.34,23.15 143.91,32.05C143.97,32.05 162.01,31.13 162.01,31.13C164.09,31.03 164.78,31.96 165.69,32.97L190.23,59.65C190.23,59.65 192.34,61.59 190.23,62.1L190.24,62.12Z" style="fill:rgb(221,12,21);fill-rule:nonzero;"/>
        </g>
        <g transform="matrix(1,0,0,1,277.728,183.967)">
            <path d="M108.94,12.74C109.16,13.29 113.24,23.17 113.24,23.17C109.13,23.406 105.041,23.917 101,24.7C102.19,24.7 115.11,27.46 115.11,27.46L120.29,40C120.84,41.31 120.29,42.25 117.84,41.84C117.16,41.69 69.98,33.84 69.98,33.84C55.28,31.66 54.33,47.4 54.33,47.4C54.33,47.4 44.91,27.6 62.61,19.49C62.46,18.73 58.32,1.09 58.32,1.09C58.16,0.09 58.78,-0.21 61.39,0.17L105.26,10C107.35,10.56 108.47,11.56 108.94,12.76L108.94,12.74Z" style="fill:rgb(221,12,21);fill-rule:nonzero;"/>
        </g>
        <g transform="matrix(1,0,0,1,277.728,183.967)">
            <path d="M26.53,31.48L49.53,39.15C49.93,40.72 51.53,49.89 55.05,53.56C55.59,49.588 56.836,45.744 58.73,42.21L84.21,50.8C86.957,51.667 88.183,53 87.89,54.8L80.53,92.8C77.85,105.46 107.83,117.33 107.83,117.33C107.83,117.33 81.53,114.52 55.37,92.8C53.905,91.595 52.63,90.176 51.59,88.59L4.44,75.33C0.527,74.363 -0.807,72.727 0.44,70.42L20.69,32.42C21.51,30.94 24.33,30.87 26.52,31.5L26.53,31.48Z" style="fill:rgb(221,12,21);fill-rule:nonzero;"/>
        </g>
        <g transform="matrix(1,0,0,1,277.728,183.967)">
            <path d="M81.33,136.95L93.33,117.02C100.883,119.341 108.749,120.478 116.65,120.39L97.78,109.6L107.1,94.32C108.133,92.593 109.973,92.387 112.62,93.7L164.16,121.61C177.84,128.85 185.02,113.61 185.02,113.61C185.02,113.61 185.97,135.88 163.24,141.82C163.16,142.44 154.34,174.33 154.34,174.33C153.447,176.91 151.503,177.627 148.51,176.48L83.78,143.38C80.447,141.66 79.63,139.513 81.33,136.94L81.33,136.95Z" style="fill:rgb(221,12,21);fill-rule:nonzero;"/>
        </g>
    </g>
</svg>
